<svg xmlns="http://www.w3.org/2000/svg" width="256" height="256" viewBox="0 0 100 100">
	<rect width="100" height="100" rx="50" fill="#000000">
	</rect>
	<path d="M18.65 66.63L18.65 66.63Q18.54 59.19 18.39 53.89Q18.24 48.58 18.13 44.95Q18.01 41.32 17.86 39.18Q17.71 37.04 17.66 35.75Q17.60 34.46 17.54 33.91Q17.48 33.35 17.48 32.82L17.48 32.82Q17.48 31.83 18.07 31.56Q18.65 31.30 19.53 31.30L19.53 31.30Q20.53 31.30 21.08 31.68Q21.64 32.06 21.64 33.64L21.64 33.64L22.75 65.17Q22.81 65.17 23.34 65.05Q23.87 64.93 24.57 64.70Q25.27 64.46 26.04 64.20Q26.80 63.94 27.27 63.70L27.27 63.70Q27.97 63.41 29.38 62.76Q30.78 62.12 32.54 61.30Q34.30 60.48 36.26 59.57Q38.22 58.66 40.01 57.87Q41.80 57.08 43.17 56.41Q44.55 55.73 45.25 55.44L45.25 55.44L45.96 55.44Q46.31 55.44 46.66 55.50Q47.01 55.56 47.25 55.79Q47.48 56.03 47.54 56.49L47.54 56.49Q47.54 57.08 47.33 57.49Q47.13 57.90 46.78 58.43L46.78 58.43Q43.32 59.07 40.01 60.77Q36.70 62.47 33.45 64.29Q30.20 66.10 26.88 67.51Q23.57 68.92 20.12 68.92L20.12 68.92Q18.65 68.92 18.65 66.63ZM71.56 75.71L69.34 53.21Q68.75 55.38 67.78 57.99Q66.82 60.60 65.38 62.88Q63.95 65.17 61.95 66.72Q59.96 68.27 57.32 68.27L57.32 68.27Q55.27 68.27 54.01 67.42Q52.75 66.57 52.05 65.14Q51.35 63.70 51.03 61.97Q50.70 60.24 50.59 58.49L50.59 58.49Q50.53 57.90 50.47 56.11Q50.41 54.33 50.35 51.89Q50.29 49.46 50.21 46.71Q50.12 43.96 50.03 41.55Q49.94 39.15 49.88 37.33Q49.82 35.52 49.82 34.93L49.82 34.93Q49.77 34.35 49.88 34.02Q50 33.70 50.29 33.55Q50.59 33.41 50.97 33.38Q51.35 33.35 51.64 33.35L51.64 33.35L52.11 33.35Q52.46 33.35 52.75 33.41Q53.05 33.47 53.28 33.67Q53.52 33.88 53.52 34.23L53.52 34.23L53.52 59.19Q53.52 60.24 53.84 61.30Q54.16 62.35 54.75 63.26Q55.33 64.17 56.21 64.76Q57.09 65.34 58.20 65.34L58.20 65.34Q60.43 65.17 62.04 62.97Q63.65 60.77 64.82 57.43Q66.00 54.09 66.76 50.17Q67.52 46.24 68.11 42.61Q68.69 38.97 69.13 36.16Q69.57 33.35 70.10 32.24L70.10 32.24Q71.21 31.24 71.86 31.74Q72.50 32.24 72.82 33.26Q73.14 34.29 73.20 35.49Q73.26 36.69 73.09 37.22L73.09 37.22Q73.09 41.14 72.71 45.01Q72.32 48.88 72.32 52.86L72.32 52.86Q72.32 55.38 72.56 57.90Q72.79 60.42 73.09 62.94Q73.38 65.46 73.61 67.95Q73.85 70.44 73.85 72.90L73.85 72.90Q73.85 73.37 73.79 73.87Q73.73 74.37 73.53 74.78Q73.32 75.19 72.97 75.48Q72.62 75.77 71.97 75.77L71.97 75.77Q71.97 75.77 71.83 75.74Q71.68 75.71 71.56 75.71L71.56 75.71ZM78.07 25.15L78.07 25.15Q78.07 24.68 78.39 24.47Q78.71 24.27 79.15 24.24Q79.59 24.21 80.09 24.27Q80.59 24.33 80.94 24.33L80.94 24.33Q81.23 25.03 81.44 27.11Q81.64 29.19 81.85 32.15Q82.05 35.11 82.14 38.68Q82.23 42.26 82.31 45.92Q82.40 49.58 82.43 53.10Q82.46 56.61 82.49 59.51Q82.52 62.41 82.52 64.46L82.52 64.46L82.52 67.10Q82.46 68.27 82.02 68.48Q81.58 68.68 80 68.21L80 68.21Q79.82 68.15 79.71 66.46Q79.59 64.76 79.53 61.97Q79.47 59.19 79.41 55.59Q79.36 51.98 79.30 48.17Q79.24 44.37 79.15 40.56Q79.06 36.75 78.95 33.61Q78.83 30.48 78.62 28.22Q78.42 25.97 78.07 25.15Z" fill="#fffbfb">
	</path>
</svg>
