<svg xmlns="http://www.w3.org/2000/svg" width="256" height="256" viewBox="0 0 100 100">
	<path fill="#145bab" d="M34.29 68.73L34.29 68.73Q34.16 60.29 34.00 54.28Q33.83 48.27 33.70 44.16Q33.56 40.04 33.40 37.62Q33.23 35.19 33.17 33.73Q33.10 32.27 33.03 31.64Q32.97 31.01 32.97 30.41L32.97 30.41Q32.97 29.28 33.63 28.98Q34.29 28.68 35.29 28.68L35.29 28.68Q36.42 28.68 37.05 29.12Q37.68 29.55 37.68 31.34L37.68 31.34L38.94 67.07Q39.01 67.07 39.61 66.93Q40.21 66.80 41.00 66.54Q41.80 66.27 42.66 65.97Q43.53 65.67 44.06 65.41L44.06 65.41Q44.85 65.07 46.45 64.34Q48.04 63.61 50.03 62.68Q52.03 61.75 54.25 60.72Q56.47 59.70 58.50 58.80Q60.53 57.90 62.09 57.14Q63.65 56.38 64.44 56.04L64.44 56.04L65.24 56.04Q65.64 56.04 66.04 56.11Q66.44 56.18 66.70 56.44Q66.97 56.71 67.03 57.24L67.03 57.24Q67.03 57.90 66.80 58.37Q66.57 58.83 66.17 59.43L66.17 59.43Q62.25 60.16 58.50 62.09Q54.75 64.01 51.06 66.07Q47.38 68.13 43.63 69.72Q39.87 71.32 35.96 71.32L35.96 71.32Q34.29 71.32 34.29 68.73Z">
	</path>
</svg>
